 <svg class="icon" viewBox="0 0 1024 1024" version="1.1" xmlns="http://www.w3.org/2000/svg" p-id="9150" height="128" width="128"><path d="M109.40818697722278 339.460651033284h377.69284144340503v36.47173317395414H109.40818697722278v-36.47173317395414zM109.40818697722278 512.3506891848841h377.69284144340503v36.47173317395414H109.40818697722278v-36.47173317395414zM109.40818697722278 684.8900381516003H925.8138841995815v36.47173194106056H109.40818697722278v-36.47173194106056z" fill="#000000" p-id="9151"></path><path d="M910.0328462219211 598.6203642846891c0 8.41655399904997-7.364483978610229 15.43034879277601-16.482416347428572 15.43034755988242h-296.3328247951275c-9.117933601711933 0-16.48241758032216-7.013794793726042-16.48241758032216-15.43034755988242 0 0 0-55.75966793203057 44.186906337448555-75.74898229276897 28.05517917490417-12.975519567012345 10.17000238925808-2.4548279928700762 44.53759675522634-15.43034879277601 34.36759436596825-12.975519567012345 35.4196631535144-17.534486367868315 35.41966192062082-17.534486367868315l0.35069041777777776-30.15931674999647s-12.975519567012345-9.117933601711933-16.83310676520635-37.52380196150029c-8.065863581272191 2.1041388079858905-10.520691574142269-8.767243183934157-11.222072409697825-15.43034755988242-0.3506891848841857-6.663104375948265-4.558966800855966-27.35379957224221 5.26034640351793-25.600351182034093-2.1041388079858905-14.027589587452084-3.5068967804162257-26.301729551802467-2.8055184106478537-32.96483516064432 2.4548279928700762-23.145521956270432 27.003109154464426-47.69380311786478 64.52691111596472-49.447251508072895 44.186906337448555 1.7534483902081128 61.721392705316866 25.95104036691828 64.17622193108053 49.447251508072895 0.7013796026619634 6.663104375948265-0.7013796026619634 19.28793475807642-2.8055184106478537 32.96483516064432 9.819311971480305-1.7534483902081128 5.611035588402117 18.937245573192243 4.9096559857401525 25.600351182034093-0.3506891848841857 7.013794793726042-3.1562075955320394 17.534486367868315-11.222071176804233 15.43034755988242-3.8575871981940026 28.405868359788357-16.83310676520635 37.17311154372251-16.83310676520635 37.17311154372251l0.3506891848841857 30.159317982890062s4.558966800855966 4.208276383078189 38.926559933930626 17.18379595009053c34.36759436596825 12.975519567012345 16.48241758032216 3.1562075955320394 44.53759675522634 16.131728395437978 43.836217152564366 19.989314360738383 43.836217152564366 75.74898229276897 43.83621591967077 75.74898229276897z m0 0" fill="#000000" p-id="9152"></path><path d="M959.1294097780035 879.5228402870405h-894.258819556007c-33.666214763306286 0-60.66932391777072-27.35379957224221-60.66932391777072-60.66932391777072V242.31959517445262c0-33.666214763306286 27.35379957224221-60.66932391777072 60.66932391777072-60.66932391777072h894.258819556007c33.666214763306286 0 60.66932391777072 27.35379957224221 60.66932391777072 60.66932391777072v576.1832307770394c0 33.666214763306286-27.003109154464426 61.0200131026549-60.66932391777072 61.02001433554849zM64.87059022199657 203.7437244254063c-21.392073566062315 0-38.57587074904644 17.183797182984126-38.57587074904644 38.57587074904644v576.1832307770394c0 21.392073566062315 17.183797182984126 38.57587074904644 38.57587074904644 38.57587074904644h894.258819556007c21.392073566062315 0 38.57587074904644-17.183797182984126 38.57587074904644-38.57587074904644V242.31959517445262c0-21.392073566062315-17.183797182984126-38.57587074904644-38.57587074904644-38.57587074904644h-894.258819556007z" fill="#000000" p-id="9153"></path></svg>