<svg class="icon" viewBox="0 0 1024 1024" version="1.1" xmlns="http://www.w3.org/2000/svg" p-id="4133" height="128" width="128"><path d="M748.7 63.9H274c-74.3 0-134.8 60.4-134.8 134.6V825c0 74.2 60.5 134.6 134.8 134.6h474.7c74.3 0 134.8-60.4 134.8-134.6V198.5c0-74.2-60.5-134.6-134.8-134.6z m80.9 178.9v582c0 44.5-36.3 80.8-80.9 80.8H274c-44.6 0-80.9-36.2-80.9-80.8v-71h44.5V700h-44.5v-53.8h44.5v-53.8h-44.5v-53.8h44.5v-53.8h-44.5V431h44.5v-54h-44.5v-53.8h44.5v-53.8h-44.5v-70.9c0-44.5 36.3-80.8 80.9-80.8h202.6c0 0.3 0.1-0.3 0.1 0 0 1 0.2-1 0.3 0 0.1 0.8 0.2-0.8 0.4 0 0.2 0.9 0.5-0.8 0.8 0 0.3 0.8 0.6-0.8 1 0 0.3 0.7 0.8-0.7 1.2 0 0.5 0.8 1-0.8 1.6 0 0.2 0.3 0.3-0.3 0.5 0 0.3 0.3 0.6-0.3 0.9 0 0.8 0.9 1.7-0.8 2.7 0 0.6 0.5 1.1-0.4 1.7 0 1 0.7 2-0.6 3.1 0 0.6 0.3 1.2-0.3 1.8 0 1.3 0.6 2.6-0.4 4 0 0.5 0.1 0.9-0.1 1.4 0 1.8 0.4 3.7 0 5.7 0 1.7 0 3.3 0.3 5 0 0.6-0.1 1.1 0.1 1.6 0 1-0.3 2.1 0.4 3.1 0 0.6-0.2 1.2 0.3 1.8 0 0.9-0.4 1.7 0.5 2.6 0 0.6-0.4 1.2 0.4 1.8 0 0.3-0.2 0.6 0.2 1 0H690.8c0.4 0.4 0.9-0.4 1.4 0 0.6 0.5 1.2-0.4 1.9 0 0.8 0.5 1.7-0.4 2.5 0 0.6 0.3 1.3-0.3 1.9 0 1 0.4 2-0.3 3.1 0 0.6 0.2 1.1-0.1 1.7 0 1.7 0.3 3.4 0 5.1 0 1.9 0 3.8 0.4 5.5 0 0.3-0.1 0.7 0.1 1 0 1.5-0.4 2.9 0.6 4.2 0 0.6-0.2 1.1 0.3 1.6 0 1.1-0.6 2.1 0.7 3.1 0 0.6-0.4 1.1 0.5 1.6 0 0.9-0.8 1.8 0.9 2.6 0 0.2-0.2 0.4 0.2 0.6 0 0.3-0.4 0.6 0.4 0.9 0 0.6-0.8 1.1 0.8 1.6 0 0.4-0.7 0.8 0.8 1.2 0 0.4-0.8 0.8 0.8 1.1 0 0.3-0.8 0.6 0.9 0.8 0 0.2-0.8 0.4 0.8 0.5 0 0.2-0.9 0.2 1 0.3 0 0-0.5 0.2 0.5 0.2 0H749c44.6 0 80.9 36.2 80.9 80.8v44.3z" fill="#4D4D4D" p-id="4134"></path><path d="M624.9 542.7c36.4-28 60-71.8 60-121.1 0-84.3-68.7-152.9-153.1-152.9-84.4 0-153.1 68.6-153.1 152.9 0 49.3 23.6 93.2 60 121.1-67.7 34.1-114.3 104.2-114.3 184.9v26.9H739v-26.9c0.2-80.7-46.4-150.8-114.1-184.9zM432.8 421.6c0-54.6 44.5-99 99.1-99s99.1 44.4 99.1 99-44.5 99-99.1 99-99.1-44.4-99.1-99z m-51.9 279.1c12.8-71.7 75.6-126.3 151-126.3s138.2 54.6 151 126.3h-302z" fill="#4D4D4D" p-id="4135"></path></svg>