<svg class="icon" viewBox="0 0 1024 1024" version="1.1" xmlns="http://www.w3.org/2000/svg" p-id="2628" height="128" width="128"><path d="M304 431.3m-60 0a60 60 0 1 0 120 0 60 60 0 1 0-120 0Z" fill="" p-id="2629"></path><path d="M512 431.3m-60 0a60 60 0 1 0 120 0 60 60 0 1 0-120 0Z" fill="" p-id="2630"></path><path d="M720 431.3m-60 0a60 60 0 1 0 120 0 60 60 0 1 0-120 0Z" fill="" p-id="2631"></path><path d="M930 79.3H94c-51.9 0-94 42.1-94 94v516c0 51.9 42.1 94 94 94h216V917.6c0.4 4.1 1.6 8.3 3.9 12.1 8.2 14.3 26.7 19.2 41 11L370 932l250.6-144.7c4.6-2.6 9.7-4 15-4H930c51.9 0 94-42.1 94-94v-516c0-51.9-42.1-94-94-94z m34 610c0 18.8-15.2 34-34 34H617.9c-4 0-8.1 0.9-11.6 3h-0.1l-98.7 57L370 862.7V753.3c0-16.6-13.4-30-30-30H94c-18.8 0-34-15.2-34-34v-516c0-18.8 15.2-34 34-34h836c18.8 0 34 15.2 34 34v516z" fill="" p-id="2632"></path></svg>