 <svg class="icon" viewBox="0 0 1024 1024" version="1.1" xmlns="http://www.w3.org/2000/svg" p-id="8508" height="128" width="128"><path d="M504.954 1023.366c-278.057 0-503.461-225.452-503.461-503.46 0-278.058 225.404-503.46 503.46-503.46 278.01 0 503.462 225.402 503.462 503.46 0 278.008-225.452 503.46-503.461 503.46z m0-943.988c-243.294 0-440.527 197.234-440.527 440.528 0 243.293 197.233 440.48 440.527 440.48 243.294 0 440.48-197.187 440.48-440.48 0-243.294-197.186-440.528-440.48-440.528z m31.467 755.191h-62.934V677.19H284.691v-62.884h188.796v-94.399H284.691v-62.934h153.598L284.206 239.326l53.964-34.133 156.022 220.313h35.733l139.488-208.531 52.315 35.006-137.163 204.99h140.653v62.935H542.481l-6.061 9.017v85.382h188.797v62.884H536.421v157.38z" fill="" p-id="8509"></path></svg>