 <svg class="icon" viewBox="0 0 1024 1024" version="1.1" xmlns="http://www.w3.org/2000/svg" p-id="3440" height="128" width="128"><path d="M873.023323 148.801641A503.615056 503.615056 0 0 0 514.047996 0.00192C234.43252 0.00192 6.848947 227.585493 6.848947 507.392969c0 89.407832 23.423956 176.831668 67.775873 253.631524L2.624955 1024l268.991496-70.591868a507.455049 507.455049 0 0 0 242.367545 61.823884h0.192c279.615476 0 507.391049-227.583573 507.391049-507.391048a504.767054 504.767054 0 0 0-148.607722-358.975327z m-358.847327 780.798536a421.31121 421.31121 0 0 1-214.783597-58.81589l-15.423971-9.215982-159.615701 41.791921 42.62392-155.583708-9.983981-15.99997a418.367216 418.367216 0 0 1-64.575879-224.383579 422.335208 422.335208 0 0 1 422.015208-421.823209c112.575789 0 218.62359 44.031917 298.175441 123.583768a419.455214 419.455214 0 0 1 123.391769 298.36744c-0.192 232.767564-189.375645 422.015209-421.823209 422.015209z m231.231566-315.967408c-12.607976-6.399988-75.007859-36.991931-86.591837-41.215922s-20.031962-6.399988-28.607947 6.399988c-8.383984 12.607976-32.767939 41.215923-40.191924 49.791906-7.423986 8.383984-14.783972 9.599982-27.391949 3.199994s-53.631899-19.775963-102.015809-62.975882c-37.631929-33.599937-63.167882-75.199859-70.591867-87.807835s-0.831998-19.583963 5.631989-25.791952c5.823989-5.631989 12.607976-14.783972 19.007965-22.207958s8.383984-12.607976 12.607976-21.18396c4.223992-8.383984 2.175996-15.80797-1.023998-22.207959s-28.607946-68.799871-38.975927-94.207823c-10.175981-24.831953-20.799961-21.37596-28.607946-21.823959-7.423986-0.383999-15.80797-0.383999-24.191955-0.383999s-22.207958 3.199994-33.791937 15.80797c-11.583978 12.607976-44.415917 43.391919-44.415916 105.791802s45.375915 122.62377 51.775902 131.199754c6.399988 8.383984 89.407832 136.575744 216.575594 191.423641 30.207943 12.991976 53.823899 20.799961 72.191865 26.81595 30.399943 9.599982 57.983891 8.191985 79.80785 4.99199 24.383954-3.583993 75.007859-30.591943 85.63184-60.223887s10.62398-54.975897 7.423986-60.223887c-3.007994-5.631989-11.391979-8.767984-24.191955-15.231971z" p-id="3441"></path></svg>