 <svg class="icon" viewBox="0 0 1024 1024" version="1.1" xmlns="http://www.w3.org/2000/svg" p-id="7293" height="128" width="128"><path d="M480 704l-71.264 0L231.264 704 160 704c-17.664 0-32 14.336-32 32s14.336 32 32 32l91.072 0 137.856 0L480 768c17.664 0 32-14.336 32-32S497.664 704 480 704zM480 576l-71.264 0L231.264 576 160 576c-17.664 0-32 14.336-32 32s14.336 32 32 32l91.072 0 137.856 0L480 640c17.664 0 32-14.336 32-32S497.664 576 480 576zM586.656 224 704 224l0 147.68 23.296-41.376C736.896 313.312 751.488 299.328 768 290.176L768 191.488l-64-64L704 128l-64-64 0.512 0-64-64L64 0C28.64 0 0 28.672 0 64l0 800c0 35.328 28.64 64 64 64 0 0 279.68 0.672 471.104 0.608L545.216 864 64 864 64 64l480 0 0 117.344C544 204.896 563.104 224 586.656 224zM480 448l-71.264 0L231.264 448 160 448c-17.664 0-32 14.336-32 32s14.336 32 32 32l91.072 0 137.856 0L480 512c17.664 0 32-14.336 32-32S497.664 448 480 448zM664.992 542.144c-7.584 13.472-3.072 30.688 10.048 38.432 13.152 7.776 29.952 3.168 37.536-10.304l100.736-178.752c7.584-13.472 3.072-30.688-10.048-38.464-13.152-7.776-29.952-3.168-37.536 10.304L664.992 542.144zM941.376 369.824c-28.448-17.184-67.584-9.6-82.592 16.096l-100.736 178.752 111.04 65.664 100.736-178.752C984.32 425.856 969.824 386.976 941.376 369.824zM480 192l-71.264 0L231.264 192 160 192C142.336 192 128 206.336 128 224s14.336 32 32 32l91.072 0 137.856 0L480 256c17.664 0 32-14.336 32-32S497.664 192 480 192zM480 320l-71.264 0L231.264 320 160 320c-17.664 0-32 14.336-32 32s14.336 32 32 32l91.072 0 137.856 0L480 384c17.664 0 32-14.336 32-32S497.664 320 480 320zM602.368 840.928c-10.624 18.56-34.4 104.352-22.048 140.576l-10.976 19.168c-3.776 6.592-1.184 15.264 5.728 19.36 1.536 0.896 3.136 1.536 4.736 1.856 5.76 1.152 11.712-1.216 14.656-6.368l11.616-20.288c36.448-8.512 94.592-66.4 107.296-88.64l137.472-243.808-111.136-65.632L602.368 840.928z" p-id="7294"></path></svg>