 <svg class="icon" viewBox="0 0 1024 1024" version="1.1" xmlns="http://www.w3.org/2000/svg" p-id="9892" height="128" width="128"><path d="M629.866017 227.001218h212.034105l-224.506699-224.506699v212.034105c0 6.236297 6.236297 12.472594 12.472594 12.472594zM628.618758 606.168088H215.775883c-14.967113 0-27.439708-12.472594-27.439708-27.439708s12.472594-27.439708 27.439708-27.439708h430.304507c13.719854 0 23.697929 9.978076 26.192448 22.45067 39.912302-23.697929 86.060901-37.417783 135.951279-37.417783 12.472594 0 24.945189 1.247259 36.170524 2.494519V280.633374H629.866017c-36.170524 0-66.10475-29.934227-66.10475-66.10475V0H53.632156C23.697929 0 0 23.697929 0 53.632156v860.609013c0 29.934227 23.697929 53.632156 53.632156 53.632156h538.816078c-33.676005-44.90134-53.632156-101.028015-53.632156-160.896468 0-79.824604 34.923264-152.165652 89.80268-200.808769zM215.775883 390.392205h430.304507c14.967113 0 27.439708 12.472594 27.439707 27.439707 0 14.967113-12.472594 27.439708-27.439707 27.439708H215.775883c-14.967113 0-27.439708-12.472594-27.439708-27.439708 0-14.967113 12.472594-27.439708 27.439708-27.439707zM806.976857 592.448234c-118.489647 0-215.775883 96.038977-215.775883 215.775883 0 118.489647 96.038977 215.775883 215.775883 215.775883C926.713764 1022.752741 1022.752741 926.713764 1022.752741 806.976857c0-118.489647-96.038977-214.528624-215.775884-214.528623z m0 349.232643c-14.967113 0-27.439708-12.472594-27.439707-27.439708 0-14.967113 12.472594-27.439708 27.439707-27.439707 14.967113 0 27.439708 12.472594 27.439708 27.439707 0 16.214373-12.472594 27.439708-27.439708 27.439708z m0-81.071864c-14.967113 0-27.439708-147.176614-27.439707-160.896467s12.472594-27.439708 27.439707-27.439708c14.967113 0 27.439708 12.472594 27.439708 27.439708S821.943971 860.609013 806.976857 860.609013z" p-id="9893"></path></svg>