 <svg class="icon" viewBox="0 0 1024 1024" version="1.1" xmlns="http://www.w3.org/2000/svg" p-id="22521" height="128" width="128"><path d="M921.6 1024H102.4c-58.026667 0-102.4-44.373333-102.4-102.4V102.4c0-58.026667 44.373333-102.4 102.4-102.4h819.2c58.026667 0 102.4 44.373333 102.4 102.4v819.2c0 58.026667-44.373333 102.4-102.4 102.4zM102.4 34.133333c-37.546667 0-68.266667 30.72-68.266667 68.266667v819.2c0 37.546667 30.72 68.266667 68.266667 68.266667h819.2c37.546667 0 68.266667-30.72 68.266667-68.266667V102.4c0-37.546667-30.72-68.266667-68.266667-68.266667H102.4z" fill="" p-id="22522"></path><path d="M494.933333 921.6h-341.333333c-10.24 0-17.066667-6.826667-17.066667-17.066667v-307.2c0-10.24 6.826667-17.066667 17.066667-17.066666h341.333333c10.24 0 17.066667 6.826667 17.066667 17.066666v307.2c0 10.24-6.826667 17.066667-17.066667 17.066667zM170.666667 887.466667h307.2v-273.066667H170.666667v273.066667z" fill="" p-id="22523"></path><path d="M529.066667 614.4h-409.6c-10.24 0-17.066667-6.826667-17.066667-17.066667s6.826667-17.066667 17.066667-17.066666h409.6c10.24 0 17.066667 6.826667 17.066666 17.066666s-6.826667 17.066667-17.066666 17.066667zM631.466667 785.066667h-34.133334c-10.24 0-17.066667-6.826667-17.066666-17.066667s6.826667-17.066667 17.066666-17.066667h34.133334c10.24 0 17.066667 6.826667 17.066666 17.066667s-6.826667 17.066667-17.066666 17.066667zM768 785.066667h-34.133333c-10.24 0-17.066667-6.826667-17.066667-17.066667s6.826667-17.066667 17.066667-17.066667h34.133333c10.24 0 17.066667 6.826667 17.066667 17.066667s-6.826667 17.066667-17.066667 17.066667zM631.466667 853.333333h-34.133334c-10.24 0-17.066667-6.826667-17.066666-17.066666s6.826667-17.066667 17.066666-17.066667h34.133334c10.24 0 17.066667 6.826667 17.066666 17.066667s-6.826667 17.066667-17.066666 17.066666zM768 853.333333h-34.133333c-10.24 0-17.066667-6.826667-17.066667-17.066666s6.826667-17.066667 17.066667-17.066667h34.133333c10.24 0 17.066667 6.826667 17.066667 17.066667s-6.826667 17.066667-17.066667 17.066666zM631.466667 921.6h-34.133334c-10.24 0-17.066667-6.826667-17.066666-17.066667s6.826667-17.066667 17.066666-17.066666h34.133334c10.24 0 17.066667 6.826667 17.066666 17.066666s-6.826667 17.066667-17.066666 17.066667zM768 921.6h-34.133333c-10.24 0-17.066667-6.826667-17.066667-17.066667s6.826667-17.066667 17.066667-17.066666h34.133333c10.24 0 17.066667 6.826667 17.066667 17.066666s-6.826667 17.066667-17.066667 17.066667zM904.533333 785.066667h-34.133333c-10.24 0-17.066667-6.826667-17.066667-17.066667s6.826667-17.066667 17.066667-17.066667h34.133333c10.24 0 17.066667 6.826667 17.066667 17.066667s-6.826667 17.066667-17.066667 17.066667zM904.533333 853.333333h-34.133333c-10.24 0-17.066667-6.826667-17.066667-17.066666s6.826667-17.066667 17.066667-17.066667h34.133333c10.24 0 17.066667 6.826667 17.066667 17.066667s-6.826667 17.066667-17.066667 17.066666zM904.533333 921.6h-34.133333c-10.24 0-17.066667-6.826667-17.066667-17.066667s6.826667-17.066667 17.066667-17.066666h34.133333c10.24 0 17.066667 6.826667 17.066667 17.066666s-6.826667 17.066667-17.066667 17.066667zM904.533333 614.4h-273.066666c-10.24 0-17.066667-6.826667-17.066667-17.066667s6.826667-17.066667 17.066667-17.066666h273.066666c10.24 0 17.066667 6.826667 17.066667 17.066666s-6.826667 17.066667-17.066667 17.066667zM989.866667 512H17.066667c-10.24 0-17.066667-6.826667-17.066667-17.066667s6.826667-17.066667 17.066667-17.066666H989.866667c10.24 0 17.066667 6.826667 17.066666 17.066666s-6.826667 17.066667-17.066666 17.066667zM290.133333 375.466667c-6.826667 0-13.653333-3.413333-17.066666-13.653334L221.866667 180.906667 170.666667 361.813333c-3.413333 10.24-13.653333 13.653333-20.48 10.24-10.24-3.413333-13.653333-13.653333-10.24-20.48l68.266666-238.933333c3.413333-13.653333 27.306667-13.653333 34.133334 0l68.266666 238.933333c3.413333 10.24-3.413333 17.066667-10.24 20.48-6.826667 3.413333-10.24 3.413333-10.24 3.413334z" fill="" p-id="22524"></path><path d="M273.066667 341.333333H170.666667c-10.24 0-17.066667-6.826667-17.066667-17.066666S160.426667 307.2 170.666667 307.2h102.4c10.24 0 17.066667 6.826667 17.066666 17.066667s-6.826667 17.066667-17.066666 17.066666zM563.2 136.533333h-204.8c-10.24 0-17.066667-6.826667-17.066667-17.066666s6.826667-17.066667 17.066667-17.066667h204.8c10.24 0 17.066667 6.826667 17.066667 17.066667s-6.826667 17.066667-17.066667 17.066666z" fill="" p-id="22525"></path><path d="M460.8 375.466667c-10.24 0-17.066667-6.826667-17.066667-17.066667v-238.933333c0-10.24 6.826667-17.066667 17.066667-17.066667s17.066667 6.826667 17.066667 17.066667v238.933333c0 10.24-6.826667 17.066667-17.066667 17.066667zM870.4 375.466667c-10.24 0-17.066667-6.826667-17.066667-17.066667V170.666667l-71.68 95.573333c-6.826667 10.24-20.48 10.24-27.306666 0L682.666667 170.666667v187.733333c0 10.24-6.826667 17.066667-17.066667 17.066667s-17.066667-6.826667-17.066667-17.066667v-238.933333c0-6.826667 3.413333-13.653333 10.24-17.066667 6.826667-3.413333 13.653333 0 20.48 6.826667l88.746667 119.466666 88.746667-119.466666c3.413333-6.826667 13.653333-6.826667 20.48-6.826667 6.826667 3.413333 10.24 10.24 10.24 17.066667v238.933333c0 10.24-6.826667 17.066667-17.066667 17.066667zM426.666667 853.333333h-204.8c-10.24 0-17.066667-6.826667-17.066667-17.066666v-136.533334c0-10.24 6.826667-17.066667 17.066667-17.066666h44.373333c6.826667 0 10.24 3.413333 13.653333 6.826666 10.24 17.066667 27.306667 27.306667 44.373334 27.306667s34.133333-10.24 44.373333-27.306667c3.413333-6.826667 10.24-6.826667 13.653333-6.826666h44.373334c10.24 0 17.066667 6.826667 17.066666 17.066666v136.533334c0 10.24-6.826667 17.066667-17.066666 17.066666zM238.933333 819.2h170.666667v-102.4h-17.066667c-17.066667 20.48-40.96 34.133333-68.266666 34.133333s-51.2-13.653333-68.266667-34.133333H238.933333v102.4zM768 648.533333c-27.306667 0-51.2-23.893333-51.2-51.2s23.893333-51.2 51.2-51.2 51.2 23.893333 51.2 51.2-23.893333 51.2-51.2 51.2z m0-68.266666c-10.24 0-17.066667 6.826667-17.066667 17.066666s6.826667 17.066667 17.066667 17.066667 17.066667-6.826667 17.066667-17.066667-6.826667-17.066667-17.066667-17.066666z" fill="" p-id="22526"></path></svg>