 <svg class="icon" viewBox="0 0 1024 1024" version="1.1" xmlns="http://www.w3.org/2000/svg" p-id="24562" height="128" width="128"><path d="M521.2 786.1c0 6.9-5.6 12.5-12.5 12.5H187.3c-6.9 0-12.5-5.6-12.5-12.5V218.2c0-6.9 5.6-12.5 12.5-12.5h321.4c6.9 0 12.5 5.6 12.5 12.5v69.4h76.1V147c0-45.7-37.4-83-83-83H181.7c-45.7 0-83 37.4-83 83v730.4c0 45.7 37.4 83 83 83h332.6c45.7 0 83-37.4 83-83V761.5h-76.1v24.6zM348 902.3c-16.3 0-29.5-13.2-29.5-29.5s13.2-29.5 29.5-29.5 29.5 13.2 29.5 29.5-13.2 29.5-29.5 29.5zM890.4 326.1H385.7c-30.5 0-55.3 24.8-55.3 55.3v289.9c0 30.5 24.7 55.3 55.3 55.3h504.7c30.5 0 55.3-24.8 55.3-55.3V381.4c-0.1-30.5-24.8-55.3-55.3-55.3zM460.2 569c0 8.3-6.7 15-15 15h-42.6c-8.3 0-15-6.7-15-15v-29.9c0-8.3 6.7-15 15-15h42.6c8.3 0 15 6.7 15 15V569z m114.3 0c0 8.3-6.7 15-15 15h-42.6c-8.3 0-15-6.7-15-15v-29.9c0-8.3 6.7-15 15-15h42.6c8.3 0 15 6.7 15 15V569z m108.9 0c0 8.3-6.7 15-15 15h-42.6c-8.3 0-15-6.7-15-15v-29.9c0-8.3 6.7-15 15-15h42.6c8.3 0 15 6.7 15 15V569z m112.5 0c0 8.3-6.7 15-15 15h-42.6c-8.3 0-15-6.7-15-15v-29.9c0-8.3 6.7-15 15-15h42.6c8.3 0 15 6.7 15 15V569zM882 670.6h-45.1c-9.2 0-16.7-7.5-16.7-16.7s7.5-16.7 16.7-16.7H882c9.2 0 16.7 7.5 16.7 16.7-0.1 9.2-7.6 16.7-16.7 16.7z m40.9-174.1H353.2V409h569.7v87.5z" p-id="24563"></path></svg>