 <svg class="icon" viewBox="0 0 1024 1024" version="1.1" xmlns="http://www.w3.org/2000/svg" p-id="11584" height="128" width="128"><path d="M511.8 610.2c138.3 0 250.4-127.8 250.4-285 0-150.3-105.3-259.8-250.4-259.8-145.1 0-250.4 109.5-250.4 259.8 0 157.2 112.1 285 250.4 285z m-186-284.9c0-115.2 76.5-195.4 185.9-195.4 109.5 0 186 80.1 186 195.4 0 121.5-83.3 220-186 220-102.6 0-185.9-98.5-185.9-220z m610.8 579.3c0-10.5-2.6-88.5-72.8-159.8-73.3-74.4-191.7-112.1-352-112.1-170.8 0-293.9 42.4-365.1 126.8-57.6 68.1-59.2 137.8-59.2 145.1v0.5c-2.1 13.1 1.6 26.2 10 36.7 8.9 10.5 23 17.3 38.2 17.3h752.7c14.1 0 27.2-5.8 37.2-16.2 8.4-10 12.6-24.1 11-38.3z m-65.5-9.4H153.5c0.5-4.7 2.1-10.5 3.7-18.3 6.3-24.6 17.8-47.7 34-68.6 57.1-72.8 165-110 321.1-110 156.1 0 264 37.2 321.1 110 16.8 21.5 28.3 44.5 34 68.6 1.6 6.3 2.7 12 3.7 18.3z m0 0" p-id="11585"></path></svg>