 <svg class="icon" viewBox="0 0 1024 1024" version="1.1" xmlns="http://www.w3.org/2000/svg" p-id="1137" height="128" width="128"><path d="M508.280757 1024.000003c-140.628428-1.870154-264.65817-52.916787-364.785633-156.746013-102.003328-105.773615-149.48382-234.091862-142.702728-380.779017C7.02529 351.655443 59.800745 236.032828 157.158667 142.729284c106.091969-101.677835 234.404506-149.068389 381.054543-142.050316 134.5697 6.438468 249.996735 59.27531 343.094704 156.546149 101.60931 106.161921 148.934195 234.501583 141.841886 381.138772-6.498428 134.339857-59.356683 249.511351-156.319161 342.629307C768.155044 975.757173 648.987702 1022.553846 508.280757 1024.000003zM512.168107 73.790561C391.433262 74.979751 287.52409 117.513615 202.424955 202.235865c-78.983305 78.634971-122.346604 175.056389-127.69867 286.677446-6.185784 128.996357 36.754946 240.84583 127.560193 332.382006 78.492211 79.123209 175.003568 122.429404 286.617487 127.808595 129.210496 6.230039 241.231281-36.793491 332.823134-127.859988 79.177458-78.723482 122.378011-175.438985 127.538779-287.309872 5.944519-128.816479-36.934824-240.568876-127.81716-331.692476C736.656515 117.222385 632.473245 74.961192 512.168107 73.790561zM430.079776 564.373303c-15.773534-14.01045-31.607027-27.95523-47.516182-41.8115-6.511276-5.670421-12.858378-11.68632-20.03206-16.398822-12.986862-8.53561-27.388474-10.288701-41.360379-3.130723-24.50758 12.555727-22.124919 44.782332-8.290063 58.934114 8.912496 9.11807 18.671558 17.415272 28.126542 25.999421 11.453621 10.400054 22.937222 20.771556 34.497913 31.053119 19.85361 17.659391 39.857117 35.153181 59.642203 52.889663 11.653485 10.447165 24.117846 18.80718 40.713676 16.792839 11.58496-1.406184 22.354762-5.523378 29.22722-15.376661 13.46939-19.305412 26.299216-39.060518 39.30892-58.687139 26.838848-40.495254 53.624876-81.026198 80.426607-121.547149 27.524096-41.613063 55.153833-83.157602 82.503762-124.883446 12.564293-19.16979 3.222089-46.365538-18.097664-53.883271-17.996304-6.347102-35.798455 0.266961-45.904424 16.053343-18.233286 28.480586-37.060452 56.580004-55.670624 84.817899-16.040495 24.336269-32.09241 48.666827-48.198574 72.960267-24.130694 36.403757-48.315638 72.773252-72.593375 109.328335C454.483142 586.331193 442.349983 575.274444 430.079776 564.373303z" p-id="1138"></path></svg>