 <svg class="icon" viewBox="0 0 1024 1024" version="1.1" xmlns="http://www.w3.org/2000/svg" p-id="19163" height="128" width="128"><path d="M673.28 324.608l-36.096-36.352-125.44 125.44-125.44-125.44-36.096 36.352 101.12 101.376h-118.784v51.2h153.6v67.584h-153.856v51.2h153.856v188.416h51.2v-188.416h153.344v-51.2h-153.344v-67.584h153.6v-51.2h-118.784l101.12-101.376zM1024 716.8H716.8v307.2l135.424-135.424 135.68 135.424L1024 987.904l-135.424-135.68L1024 716.8z" fill="" p-id="19164"></path><path d="M512 972.8a460.8 460.8 0 1 1 460.8-460.8 25.6 25.6 0 0 0 51.2 0 512 512 0 1 0-512 512 25.6 25.6 0 0 0 0-51.2z" fill="" p-id="19165"></path></svg>