 <svg class="icon" viewBox="0 0 1024 1024" version="1.1" xmlns="http://www.w3.org/2000/svg" p-id="18948" height="128" width="128"><path d="M853.989313 0l-683.978626 0c-93.501078 0-170.010687 76.509609-170.010687 170.010687l0 683.978626c0 93.501078 76.509609 170.010687 170.010687 170.010687l683.978626 0c93.501078 0 170.010687-76.509609 170.010687-170.010687l0-683.978626c0-93.501078-76.509609-170.010687-170.010687-170.010687zM327.797756 447.986l368.404487 0c6.975782 20.063373 10.783663 41.5987 10.783663 63.998 0 107.51664-87.485266 195.001906-195.001906 195.001906s-195.001906-87.485266-195.001906-195.001906c0-22.3993 3.807881-43.934627 10.815662-63.998zM895.972001 448.049998l0 383.924002c0 35.1989-28.7991 63.998-63.998 63.998l-639.980001 0c-35.1989 0-63.998-28.7991-63.998-63.998l0-383.988 100.092872 0c-4.639855 20.607356-7.103778 42.014687-7.103778 63.998 0 160.442986 130.523921 290.998906 290.998906 290.998906s290.998906-130.523921 290.998906-290.998906c0-21.983313-2.463923-43.390644-7.103778-63.998l100.092872 0.063998zM895.972001 223.993c0 17.59945-14.39955 31.999-31.999 31.999l-63.998 0c-17.59945 0-31.999-14.39955-31.999-31.999l0-63.998c0-17.59945 14.39955-31.999 31.999-31.999l63.998 0c17.59945 0 31.999 14.39955 31.999 31.999l0 63.998z" p-id="18949"></path></svg>