 <svg class="icon" viewBox="0 0 1024 1024" version="1.1" xmlns="http://www.w3.org/2000/svg" p-id="20017" height="128" width="128"><path d="M359.416348 262.463714c11.952216 12.649088 18.145266 28.658713 18.625196 48.069809 0 18.952654-6.282077 34.852786-18.625196 47.697325-12.387122 12.845563-28.788673 19.237133-48.984644 19.237133l-0.697895 0c-19.411095 0-35.201733-6.391571-47.371914-19.237133-12.256138-12.845563-18.36323-28.744671-18.36323-47.697325 0-19.411095 6.194072-35.419697 18.625196-48.069809 12.387122-12.671601 28.788673-18.931165 48.984644-18.931165C331.455529 243.532549 347.421152 249.792113 359.416348 262.463714zM243.998665 780.011057l134.042879 0L378.041544 422.701185l-134.042879 0L243.998665 780.011057zM958.70846 244.01248l0 535.9996c0 98.713232-80.000032 178.688705-178.711218 178.688705L243.998665 958.700785c-98.623181 0-178.709171-79.975473-178.709171-178.688705L65.289494 244.01248c0-98.623181 80.08599-178.709171 178.709171-178.709171l535.998577 0C878.708428 65.303308 958.70846 145.389298 958.70846 244.01248zM869.286848 288.658306c0-74.001411-59.977-133.935432-133.954875-133.935432L288.664957 154.722874c-74.021877 0-133.954875 59.932997-133.954875 133.935432l0 446.687482c0 74.001411 59.932997 133.956921 133.954875 133.956921l446.667016 0c73.977875 0 133.954875-59.95551 133.954875-133.956921L869.286848 288.658306zM646.042367 422.701185c-41.001833 0-63.293535 5.408173-89.37761 44.64378l0-44.64378L422.709883 422.701185l6.934946 81.852216-6.934946 275.457656 133.954875 0L556.664757 556.657082c0-21.481244-5.234211-23.160489 6.544043-34.743292 11.776208-11.579733 19.541055-17.36039 37.380352-17.36039 18.189268 0 43.970444 6.477528 43.970444 23.445992 0 32.386618 1.482771 46.912449 1.482771 73.302493l0 178.709171 133.954875 0L779.997242 571.57484c0-49.269124-12.256138-87.523379-36.901445-115.112738C718.451514 428.983261 686.085362 422.701185 646.042367 422.701185z" p-id="20018"></path></svg>