 <svg class="icon" viewBox="0 0 1024 1024" version="1.1" xmlns="http://www.w3.org/2000/svg" p-id="28443" height="128" width="128"><path d="M512.004267 1024C246.524049 1024 28.265724 821.937402 2.581247 563.215359L71.314956 563.215359C96.717843 784.144529 284.274258 955.735609 512.004267 955.735609 757.064898 955.735609 955.722809 757.077697 955.722809 512.017066 955.722809 266.956435 757.064898 68.298523 512.004267 68.298523 509.145695 68.298523 506.321256 68.460651 503.471218 68.520383L503.471218 0.255991C506.321256 0.204793 509.145695 0.034132 512.004267 0.034132 794.763908 0.034132 1023.9872 229.257425 1023.9872 512.017066 1023.9872 794.776707 794.763908 1024 512.004267 1024ZM721.994067 588.771841 547.510283 588.771841C547.493217 588.771841 547.476151 588.780374 547.459085 588.780374L530.392987 588.780374C516.253725 588.780374 504.79384 577.320489 504.79384 563.181227L504.79384 290.123663C504.79384 275.984401 516.253725 264.524516 530.392987 264.524516L547.459085 264.524516C561.598347 264.524516 573.058231 275.984401 573.058231 290.123663L573.058231 520.50745 721.994067 520.50745C736.133329 520.50745 747.593214 531.975867 747.593214 546.106596L747.593214 563.172694C747.593214 577.311956 736.133329 588.771841 721.994067 588.771841Z" p-id="28444"></path></svg>