 <svg class="icon" viewBox="0 0 1024 1024" version="1.1" xmlns="http://www.w3.org/2000/svg" p-id="3355" height="128" width="128"><path d="M318 945.9c-22.8 0-45.5-7.2-64.9-21.2-34.3-24.9-51.1-66.3-44-108.1l24-139.8c2.8-16.4-2.6-33.1-14.5-44.7l-101.6-99c-30.4-29.6-41.1-73-28-113.3 13.1-40.3 47.3-69.1 89.2-75.2l140.4-20.4c16.5-2.4 30.7-12.7 38.1-27.6l62.8-127.2c18.8-38 56.7-61.6 99.1-61.6 42.4 0 80.4 23.6 99.1 61.6l62.8 127.2c3.3 6.7 7.9 12.5 13.8 17.1 7 5.6 15.4 9.2 24.3 10.5L859 344.5c41.9 6.1 76.1 34.9 89.2 75.2 13.1 40.3 2.4 83.7-28 113.3l-101.6 99c-11.9 11.6-17.3 28.3-14.5 44.7l24 139.8c7.2 41.8-9.7 83.2-44 108.1-34.3 24.9-78.9 28.1-116.4 8.4l-125.6-66c-14.7-7.7-32.3-7.7-47 0l-125.6 66c-16.2 8.7-33.9 12.9-51.5 12.9z m200.7-778.3c-19.7 0-36.6 10.5-45.3 28.2L410.6 323c-16.1 32.6-47.2 55.2-83.2 60.5L187 403.9c-19.5 2.8-34.7 15.7-40.8 34.4-6.1 18.7-1.3 38.1 12.8 51.8l101.6 99c26.1 25.4 37.9 62 31.8 97.8l-24 139.8c-3.3 19.4 4.2 37.9 20.1 49.4 15.9 11.6 35.8 13 53.2 3.8l125.6-66c32.2-16.9 70.7-16.9 102.9 0l125.6 66c17.4 9.2 37.3 7.7 53.2-3.8 15.9-11.6 23.4-30 20.1-49.4l-24-139.8c-6.2-35.9 5.7-72.4 31.8-97.8l101.6-99c14.1-13.7 18.9-33.1 12.8-51.8-6.1-18.7-21.3-31.6-40.8-34.4L710 383.5c-19.4-2.8-37.7-10.8-53.1-23-12.6-10.1-23-23-30.2-37.5L564 195.8c-8.7-17.7-25.7-28.2-45.3-28.2z" fill="#BE9BF4" p-id="3356"></path><path d="M408.9 471.8c-15.7 0-28.4 12.7-28.4 28.4V528c0 15.7 12.7 28.4 28.4 28.4s28.4-12.7 28.4-28.4v-27.7c0-15.8-12.7-28.5-28.4-28.5z m0 0M630.8 471.8c-15.7 0-28.4 12.7-28.4 28.4V528c0 15.7 12.7 28.4 28.4 28.4s28.4-12.7 28.4-28.4v-27.7c0-15.8-12.7-28.5-28.4-28.5z m0 0M590 628.5c-13-8.6-30.6-4.9-39.3 8-0.1 0.2-12.4 18-31.1 18-18.2 0-29.5-16.5-30.3-17.6-8.3-13.1-25.7-17.1-39-8.9-13.3 8.3-17.4 25.8-9.2 39.2 10.2 16.4 38.2 44.2 78.4 44.2 40 0 68.4-27.6 78.8-43.9 8.5-13.1 4.7-30.4-8.3-39z m0 0" fill="#99CBF8" p-id="3357"></path></svg>