 <svg class="icon" viewBox="0 0 1024 1024" version="1.1" xmlns="http://www.w3.org/2000/svg" p-id="13433" height="128" width="128"><path d="M819.2 204.8V102.4a51.2 51.2 0 0 0-51.2-51.2H256a51.2 51.2 0 0 0-51.2 51.2v102.4h614.4z m0 51.2H204.8v665.6a51.2 51.2 0 0 0 51.2 51.2h512a51.2 51.2 0 0 0 51.2-51.2V256zM256 0h512a102.4 102.4 0 0 1 102.4 102.4v819.2a102.4 102.4 0 0 1-102.4 102.4H256a102.4 102.4 0 0 1-102.4-102.4V102.4a102.4 102.4 0 0 1 102.4-102.4z m179.2 844.8h153.6a25.6 25.6 0 0 1 0 51.2h-153.6a25.6 25.6 0 0 1 0-51.2z" p-id="13434"></path></svg>