 <svg class="icon" viewBox="0 0 1024 1024" version="1.1" xmlns="http://www.w3.org/2000/svg" p-id="23013" height="128" width="128"><path d="M22.26087 279.850932c12.720497 0 19.080745-6.360248 19.080745-19.080745L41.341615 38.161491l222.608696 0c12.720497 0 19.080745-6.360248 19.080745-19.080745S276.670807 0 263.950311 0L15.900621 0C9.540373 0 3.180124 6.360248 3.180124 12.720497l0 248.049689C3.180124 267.130435 9.540373 279.850932 22.26087 279.850932zM1001.73913 0l-248.049689 0c-12.720497 0-19.080745 6.360248-19.080745 19.080745s6.360248 19.080745 19.080745 19.080745l228.968944 0 0 222.608696c0 12.720497 6.360248 19.080745 19.080745 19.080745S1020.819876 267.130435 1020.819876 260.770186L1020.819876 12.720497C1020.819876 6.360248 1014.459627 0 1001.73913 0zM263.950311 979.478261 41.341615 979.478261l0-228.968944c0-12.720497-6.360248-19.080745-19.080745-19.080745S3.180124 744.149068 3.180124 756.869565l0 248.049689C3.180124 1011.279503 9.540373 1017.639752 15.900621 1017.639752l248.049689 0c12.720497 0 19.080745-6.360248 19.080745-19.080745S276.670807 979.478261 263.950311 979.478261zM1001.73913 737.78882c-12.720497 0-19.080745 6.360248-19.080745 19.080745l0 228.968944-228.968944 0c-12.720497 0-19.080745 6.360248-19.080745 19.080745s6.360248 19.080745 19.080745 19.080745l248.049689 0c12.720497 0 19.080745-6.360248 19.080745-19.080745l0-248.049689C1020.819876 744.149068 1014.459627 737.78882 1001.73913 737.78882zM1001.73913 489.73913 22.26087 489.73913C9.540373 489.73913 3.180124 496.099379 3.180124 508.819876c0 12.720497 6.360248 19.080745 19.080745 19.080745l979.478261 0C1014.459627 527.900621 1020.819876 521.540373 1020.819876 508.819876 1020.819876 496.099379 1014.459627 489.73913 1001.73913 489.73913z" p-id="23014"></path></svg>